{
  "accessors": [
    {
      "bufferView": 2,
      "componentType": 5126,
      "count": 1356,
      "max": [
        1.4204000234603882,
        3.690390110015869,
        1.6778500080108643
      ],
      "min": [
        -1.4204000234603882,
        0.031980000436306,
        -2.249380111694336
      ],
      "type": "VEC3"
    },
    {
      "bufferView": 2,
      "byteOffset": 16272,
      "componentType": 5126,
      "count": 1356,
      "max": [
        0.9979047179222107,
        0.9985892176628113,
        0.9999954104423523
      ],
      "min": [
        -0.9979047179222107,
        -1.0,
        -0.9999151229858398
      ],
      "type": "VEC3"
    },
    {
      "bufferView": 3,
      "componentType": 5126,
      "count": 1356,
      "max": [
        0.9993250966072083,
        0.9999760985374451,
        1.0,
        1.0
      ],
      "min": [
        -0.9993274211883545,
        -0.9674769043922424,
        -0.9992338418960571,
        1.0
      ],
      "type": "VEC4"
    },
    {
      "bufferView": 1,
      "componentType": 5126,
      "count": 1356,
      "max": [
        0.9998199939727783,
        0.948360025882721
      ],
      "min": [
        0.00018000000272877514,
        0.00018000000272877514
      ],
      "type": "VEC2"
    },
    {
      "bufferView": 0,
      "componentType": 5125,
      "count": 7230,
      "type": "SCALAR"
    },
    {
      "bufferView": 2,
      "byteOffset": 32544,
      "componentType": 5126,
      "count": 258,
      "max": [
        1.0963000059127808,
        1.9609800577163696,
        1.486840009689331
      ],
      "min": [
        -1.1230100393295288,
        1.3590600490570068,
        1.017590045928955
      ],
      "type": "VEC3"
    },
    {
      "bufferView": 2,
      "byteOffset": 35640,
      "componentType": 5126,
      "count": 258,
      "max": [
        0.9852200746536255,
        0.9972501993179321,
        0.9994943141937256
      ],
      "min": [
        -0.9907498359680176,
        -0.9341884851455688,
        -0.41926857829093933
      ],
      "type": "VEC3"
    },
    {
      "bufferView": 1,
      "byteOffset": 10848,
      "componentType": 5126,
      "count": 258,
      "max": [
        0.8447099924087524,
        0.8188300132751465
      ],
      "min": [
        0.7423499822616577,
        0.6122099757194519
      ],
      "type": "VEC2"
    },
    {
      "bufferView": 0,
      "byteOffset": 28920,
      "componentType": 5125,
      "count": 1440,
      "type": "SCALAR"
    },
    {
      "bufferView": 2,
      "byteOffset": 38736,
      "componentType": 5126,
      "count": 639,
      "max": [
        0.49132001399993896,
        4.095200061798096,
        -0.6523799896240234
      ],
      "min": [
        -1.1518000364303589,
        2.767240047454834,
        -2.1609299182891846
      ],
      "type": "VEC3"
    },
    {
      "bufferView": 2,
      "byteOffset": 46404,
      "componentType": 5126,
      "count": 639,
      "max": [
        0.9606128334999084,
        0.9991310834884644,
        0.9995248913764954
      ],
      "min": [
        -0.980932891368866,
        -0.9583764672279358,
        -0.9938525557518005
      ],
      "type": "VEC3"
    },
    {
      "bufferView": 3,
      "byteOffset": 21696,
      "componentType": 5126,
      "count": 639,
      "max": [
        0.9997376799583435,
        0.9993589520454407,
        0.9835672378540039,
        1.0
      ],
      "min": [
        -0.999788224697113,
        -0.9994646310806274,
        -0.9991097450256348,
        1.0
      ],
      "type": "VEC4"
    },
    {
      "bufferView": 1,
      "byteOffset": 12912,
      "componentType": 5126,
      "count": 639,
      "max": [
        0.9945399761199951,
        0.8750600218772888
      ],
      "min": [
        0.7423499822616577,
        0.3657500147819519
      ],
      "type": "VEC2"
    },
    {
      "bufferView": 0,
      "byteOffset": 34680,
      "componentType": 5125,
      "count": 3234,
      "type": "SCALAR"
    }
  ],
  "asset": {
    "extras": {
      "author": "moxstudios (https://sketchfab.com/moxstudios)",
      "license": "CC-BY-4.0 (http://creativecommons.org/licenses/by/4.0/)",
      "source": "https://sketchfab.com/3d-models/happy-octopus-d93c1147dd6e4b509becf77f64509193",
      "title": "Happy Octopus"
    },
    "generator": "Sketchfab-12.67.0",
    "version": "2.0"
  },
  "bufferViews": [
    {
      "buffer": 0,
      "byteLength": 47616,
      "name": "floatBufferViews",
      "target": 34963
    },
    {
      "buffer": 0,
      "byteLength": 18024,
      "byteOffset": 47616,
      "byteStride": 8,
      "name": "floatBufferViews",
      "target": 34962
    },
    {
      "buffer": 0,
      "byteLength": 54072,
      "byteOffset": 65640,
      "byteStride": 12,
      "name": "floatBufferViews",
      "target": 34962
    },
    {
      "buffer": 0,
      "byteLength": 31920,
      "byteOffset": 119712,
      "byteStride": 16,
      "name": "floatBufferViews",
      "target": 34962
    }
  ],
  "buffers": [
    {
      "byteLength": 151632,
      "uri": "scene.bin"
    }
  ],
  "images": [
    {
      "uri": "textures/textura_baseColor.jpeg"
    },
    {
      "uri": "textures/textura_normal.jpeg"
    }
  ],
  "materials": [
    {
      "doubleSided": true,
      "emissiveFactor": [
        0.3,
        0.3,
        0.3
      ],
      "emissiveTexture": {
        "index": 0
      },
      "name": "textura",
      "normalTexture": {
        "index": 1
      },
      "pbrMetallicRoughness": {
        "baseColorTexture": {
          "index": 0
        },
        "metallicFactor": 0.0,
        "roughnessFactor": 0.36
      }
    },
    {
      "doubleSided": true,
      "name": "ojos",
      "pbrMetallicRoughness": {
        "baseColorTexture": {
          "index": 0
        },
        "metallicFactor": 0.0,
        "roughnessFactor": 0.2
      }
    }
  ],
  "meshes": [
    {
      "name": "pulpo_Plane.005_0",
      "primitives": [
        {
          "attributes": {
            "NORMAL": 1,
            "POSITION": 0,
            "TANGENT": 2,
            "TEXCOORD_0": 3
          },
          "indices": 4,
          "material": 0,
          "mode": 4
        }
      ]
    },
    {
      "name": "ojos_Plane.007_0",
      "primitives": [
        {
          "attributes": {
            "NORMAL": 6,
            "POSITION": 5,
            "TEXCOORD_0": 7
          },
          "indices": 8,
          "material": 1,
          "mode": 4
        }
      ]
    },
    {
      "name": "hat_Plane.001_0",
      "primitives": [
        {
          "attributes": {
            "NORMAL": 10,
            "POSITION": 9,
            "TANGENT": 11,
            "TEXCOORD_0": 12
          },
          "indices": 13,
          "material": 0,
          "mode": 4
        }
      ]
    }
  ],
  "nodes": [
    {
      "children": [
        1
      ],
      "matrix": [
        1.0,
        0.0,
        0.0,
        0.0,
        0.0,
        2.220446049250313e-16,
        -1.0,
        0.0,
        0.0,
        1.0,
        2.220446049250313e-16,
        0.0,
        0.0,
        0.0,
        0.0,
        1.0
      ],
      "name": "Sketchfab_model"
    },
    {
      "children": [
        2,
        4,
        6
      ],
      "name": "Root"
    },
    {
      "children": [
        3
      ],
      "matrix": [
        1.0,
        0.0,
        0.0,
        0.0,
        0.0,
        -0.0,
        1.0,
        0.0,
        0.0,
        -1.0,
        -0.0,
        0.0,
        0.0,
        0.0,
        0.0,
        1.0
      ],
      "name": "pulpo_Plane.005"
    },
    {
      "mesh": 0,
      "name": "pulpo_Plane.005_0"
    },
    {
      "children": [
        5
      ],
      "matrix": [
        1.0,
        0.0,
        0.0,
        0.0,
        0.0,
        -0.0,
        1.0,
        0.0,
        0.0,
        -1.0,
        -0.0,
        0.0,
        0.0,
        0.0,
        0.0,
        1.0
      ],
      "name": "ojos_Plane.007"
    },
    {
      "mesh": 1,
      "name": "ojos_Plane.007_0"
    },
    {
      "children": [
        7
      ],
      "matrix": [
        1.0,
        0.0,
        0.0,
        0.0,
        0.0,
        -0.0,
        1.0,
        0.0,
        0.0,
        -1.0,
        -0.0,
        0.0,
        0.0,
        0.0,
        0.0,
        1.0
      ],
      "name": "hat_Plane.001"
    },
    {
      "mesh": 2,
      "name": "hat_Plane.001_0"
    }
  ],
  "samplers": [
    {
      "magFilter": 9729,
      "minFilter": 9987,
      "wrapS": 10497,
      "wrapT": 10497
    }
  ],
  "scene": 0,
  "scenes": [
    {
      "name": "Sketchfab_Scene",
      "nodes": [
        0
      ]
    }
  ],
  "textures": [
    {
      "sampler": 0,
      "source": 0
    },
    {
      "sampler": 0,
      "source": 1
    }
  ]
}
