{
  "accessors": [
    {
      "bufferView": 1,
      "componentType": 5126,
      "count": 2296,
      "max": [
        17.870559692382813,
        24.557968139648438,
        29.778711318969727
      ],
      "min": [
        -18.73592185974121,
        -21.03851318359375,
        0.3684439957141876
      ],
      "type": "VEC3"
    },
    {
      "bufferView": 1,
      "byteOffset": 27552,
      "componentType": 5126,
      "count": 2296,
      "max": [
        0.999518096446991,
        0.9970550537109375,
        0.9979413151741028
      ],
      "min": [
        -0.9974807500839233,
        -0.9997009634971619,
        -0.9824679493904114
      ],
      "type": "VEC3"
    },
    {
      "bufferView": 0,
      "componentType": 5125,
      "count": 3444,
      "type": "SCALAR"
    },
    {
      "bufferView": 1,
      "byteOffset": 55104,
      "componentType": 5126,
      "count": 24,
      "max": [
        3.6210219860076904,
        2.4559149742126465,
        23.56924819946289
      ],
      "min": [
        -3.9250240325927734,
        1.2654809951782227,
        22.806840896606445
      ],
      "type": "VEC3"
    },
    {
      "bufferView": 1,
      "byteOffset": 55392,
      "componentType": 5126,
      "count": 24,
      "max": [
        0.9979051351547241,
        0.11550375074148178,
        0.08839822560548782
      ],
      "min": [
        -0.9973487854003906,
        -0.17409291863441467,
        -0.04610225558280945
      ],
      "type": "VEC3"
    },
    {
      "bufferView": 0,
      "byteOffset": 13776,
      "componentType": 5125,
      "count": 36,
      "type": "SCALAR"
    },
    {
      "bufferView": 1,
      "byteOffset": 55680,
      "componentType": 5126,
      "count": 824,
      "max": [
        17.870559692382813,
        24.557968139648438,
        14.429900169372559
      ],
      "min": [
        -18.694982528686523,
        -21.03851318359375,
        0.1718139946460724
      ],
      "type": "VEC3"
    },
    {
      "bufferView": 1,
      "byteOffset": 65568,
      "componentType": 5126,
      "count": 824,
      "max": [
        0.9947792291641235,
        0.9069597721099854,
        0.08930106461048126
      ],
      "min": [
        -0.9921888709068298,
        -0.8627347350120544,
        -0.9995388388633728
      ],
      "type": "VEC3"
    },
    {
      "bufferView": 0,
      "byteOffset": 13920,
      "componentType": 5125,
      "count": 1236,
      "type": "SCALAR"
    }
  ],
  "asset": {
    "extras": {
      "author": "yifatshaik (https://sketchfab.com/yifatshaik)",
      "license": "CC-BY-4.0 (http://creativecommons.org/licenses/by/4.0/)",
      "source": "https://sketchfab.com/3d-models/octopus-f791893db35147a5bba081c7b04af8db",
      "title": "Octopus"
    },
    "generator": "Sketchfab-12.66.0",
    "version": "2.0"
  },
  "bufferViews": [
    {
      "buffer": 0,
      "byteLength": 18864,
      "name": "floatBufferViews",
      "target": 34963
    },
    {
      "buffer": 0,
      "byteLength": 75456,
      "byteOffset": 18864,
      "byteStride": 12,
      "name": "floatBufferViews",
      "target": 34962
    }
  ],
  "buffers": [
    {
      "byteLength": 94320,
      "uri": "scene.bin"
    }
  ],
  "materials": [
    {
      "doubleSided": true,
      "name": "Body",
      "pbrMetallicRoughness": {
        "baseColorFactor": [
          0.6751395395437068,
          0.0815155585170098,
          0.0815155585170098,
          1.0
        ],
        "metallicFactor": 0.0,
        "roughnessFactor": 0.6
      }
    },
    {
      "doubleSided": true,
      "name": "Eyes",
      "pbrMetallicRoughness": {
        "baseColorFactor": [
          0.0,
          0.0,
          0.0,
          1.0
        ],
        "metallicFactor": 0.0,
        "roughnessFactor": 0.6
      }
    },
    {
      "doubleSided": true,
      "name": "tuntacles",
      "pbrMetallicRoughness": {
        "baseColorFactor": [
          0.11542748944168615,
          0.6089591763301476,
          0.6994024055223932,
          1.0
        ],
        "metallicFactor": 0.0,
        "roughnessFactor": 0.6
      }
    }
  ],
  "meshes": [
    {
      "name": "Object_0",
      "primitives": [
        {
          "attributes": {
            "NORMAL": 1,
            "POSITION": 0
          },
          "indices": 2,
          "material": 0,
          "mode": 4
        }
      ]
    },
    {
      "name": "Object_1",
      "primitives": [
        {
          "attributes": {
            "NORMAL": 4,
            "POSITION": 3
          },
          "indices": 5,
          "material": 1,
          "mode": 4
        }
      ]
    },
    {
      "name": "Object_2",
      "primitives": [
        {
          "attributes": {
            "NORMAL": 7,
            "POSITION": 6
          },
          "indices": 8,
          "material": 2,
          "mode": 4
        }
      ]
    }
  ],
  "nodes": [
    {
      "children": [
        1
      ],
      "matrix": [
        1.0,
        0.0,
        0.0,
        0.0,
        0.0,
        2.220446049250313e-16,
        -1.0,
        0.0,
        0.0,
        1.0,
        2.220446049250313e-16,
        0.0,
        0.0,
        0.0,
        0.0,
        1.0
      ],
      "name": "Sketchfab_model"
    },
    {
      "children": [
        2,
        3,
        4
      ],
      "name": "53799bc264d5437eb9a6b6f288d5749c.obj.cleaner"
    },
    {
      "mesh": 0,
      "name": "Object_2"
    },
    {
      "mesh": 1,
      "name": "Object_3"
    },
    {
      "mesh": 2,
      "name": "Object_4"
    }
  ],
  "scene": 0,
  "scenes": [
    {
      "name": "Sketchfab_Scene",
      "nodes": [
        0
      ]
    }
  ]
}
