{
  "accessors": [
    {
      "bufferView": 2,
      "componentType": 5126,
      "count": 65532,
      "max": [
        -0.36015599966049194,
        -0.6946920156478882,
        2.2723209857940674
      ],
      "min": [
        -2.693434953689575,
        -4.0032958984375,
        -1.6262110471725464
      ],
      "type": "VEC3"
    },
    {
      "bufferView": 2,
      "byteOffset": 786384,
      "componentType": 5126,
      "count": 65532,
      "max": [
        0.999925971031189,
        0.9999913573265076,
        0.999926745891571
      ],
      "min": [
        -0.9999935030937195,
        -0.9998636245727539,
        -0.9999618530273438
      ],
      "type": "VEC3"
    },
    {
      "bufferView": 1,
      "componentType": 5126,
      "count": 65532,
      "max": [
        0.9915869832038879,
        0.9919329881668091
      ],
      "min": [
        0.00810100045055151,
        0.02381500042974949
      ],
      "type": "VEC2"
    },
    {
      "bufferView": 0,
      "componentType": 5125,
      "count": 330678,
      "type": "SCALAR"
    },
    {
      "bufferView": 2,
      "byteOffset": 1572768,
      "componentType": 5126,
      "count": 27442,
      "max": [
        -0.4521400034427643,
        -0.7422119975090027,
        2.25435209274292
      ],
      "min": [
        -2.6909029483795166,
        -3.9935719966888428,
        -1.6250699758529663
      ],
      "type": "VEC3"
    },
    {
      "bufferView": 2,
      "byteOffset": 1902072,
      "componentType": 5126,
      "count": 27442,
      "max": [
        0.9999607801437378,
        0.999696671962738,
        0.999870240688324
      ],
      "min": [
        -0.9936286211013794,
        -0.9774836301803589,
        -0.9999618530273438
      ],
      "type": "VEC3"
    },
    {
      "bufferView": 1,
      "byteOffset": 524256,
      "componentType": 5126,
      "count": 27442,
      "max": [
        0.9883270263671875,
        0.860418975353241
      ],
      "min": [
        0.008078999817371368,
        0.011614999733865261
      ],
      "type": "VEC2"
    },
    {
      "bufferView": 0,
      "byteOffset": 1322712,
      "componentType": 5125,
      "count": 149271,
      "type": "SCALAR"
    }
  ],
  "asset": {
    "extras": {
      "author": "Terrie Simmons-Ehrhardt (https://sketchfab.com/terrielsimmons)",
      "license": "CC-BY-4.0 (http://creativecommons.org/licenses/by/4.0/)",
      "source": "https://sketchfab.com/3d-models/happy-octopus-46a8f68103c04a478c088ba1d539d6ca",
      "title": "Happy Octopus"
    },
    "generator": "Sketchfab-12.65.0",
    "version": "2.0"
  },
  "bufferViews": [
    {
      "buffer": 0,
      "byteLength": 1919796,
      "name": "floatBufferViews",
      "target": 34963
    },
    {
      "buffer": 0,
      "byteLength": 743792,
      "byteOffset": 1919796,
      "byteStride": 8,
      "name": "floatBufferViews",
      "target": 34962
    },
    {
      "buffer": 0,
      "byteLength": 2231376,
      "byteOffset": 2663588,
      "byteStride": 12,
      "name": "floatBufferViews",
      "target": 34962
    }
  ],
  "buffers": [
    {
      "byteLength": 4894964,
      "uri": "scene.bin"
    }
  ],
  "extensionsUsed": [
    "KHR_materials_unlit"
  ],
  "images": [
    {
      "uri": "textures/material0000_baseColor.jpeg"
    }
  ],
  "materials": [
    {
      "doubleSided": true,
      "extensions": {
        "KHR_materials_unlit": {}
      },
      "name": "material0000",
      "pbrMetallicRoughness": {
        "baseColorTexture": {
          "index": 0
        },
        "metallicFactor": 0.0
      }
    }
  ],
  "meshes": [
    {
      "name": "Object_0",
      "primitives": [
        {
          "attributes": {
            "NORMAL": 1,
            "POSITION": 0,
            "TEXCOORD_0": 2
          },
          "indices": 3,
          "material": 0,
          "mode": 4
        }
      ]
    },
    {
      "name": "Object_1",
      "primitives": [
        {
          "attributes": {
            "NORMAL": 5,
            "POSITION": 4,
            "TEXCOORD_0": 6
          },
          "indices": 7,
          "material": 0,
          "mode": 4
        }
      ]
    }
  ],
  "nodes": [
    {
      "children": [
        1
      ],
      "matrix": [
        0.555070698261261,
        0.8291168212890625,
        -0.06679638475179654,
        0.0,
        -0.7825613021850586,
        0.5477440953254699,
        0.2959294319152833,
        0.0,
        0.28194740414619446,
        -0.11198949068784735,
        0.9528714418411255,
        0.0,
        -2.6086344718933105,
        2.911772727966308,
        2.6343128681182866,
        1.0
      ],
      "name": "Sketchfab_model"
    },
    {
      "children": [
        2,
        3
      ],
      "name": "model.obj.cleaner.materialmerger.gles"
    },
    {
      "mesh": 0,
      "name": "Object_2"
    },
    {
      "mesh": 1,
      "name": "Object_3"
    }
  ],
  "samplers": [
    {
      "magFilter": 9729,
      "minFilter": 9987,
      "wrapS": 10497,
      "wrapT": 10497
    }
  ],
  "scene": 0,
  "scenes": [
    {
      "name": "Sketchfab_Scene",
      "nodes": [
        0
      ]
    }
  ],
  "textures": [
    {
      "sampler": 0,
      "source": 0
    }
  ]
}
