{
  "accessors": [
    {
      "bufferView": 2,
      "componentType": 5126,
      "count": 575,
      "max": [
        1.0376713275909424,
        1.0376713275909424,
        1.0
      ],
      "min": [
        -1.0376708507537842,
        -1.037671446800232,
        -1.0
      ],
      "type": "VEC3"
    },
    {
      "bufferView": 2,
      "byteOffset": 6900,
      "componentType": 5126,
      "count": 575,
      "max": [
        0.9974292516708374,
        0.9974292516708374,
        1.0
      ],
      "min": [
        -0.9974292516708374,
        -0.9974292516708374,
        -1.0
      ],
      "type": "VEC3"
    },
    {
      "bufferView": 1,
      "componentType": 5126,
      "count": 575,
      "max": [
        0.24813982844352722,
        0.43143293261528015
      ],
      "min": [
        0.22613684833049774,
        0.36869335174560547
      ],
      "type": "VEC2"
    },
    {
      "bufferView": 0,
      "componentType": 5125,
      "count": 2880,
      "type": "SCALAR"
    },
    {
      "bufferView": 2,
      "byteOffset": 13800,
      "componentType": 5126,
      "count": 637,
      "max": [
        11.458144187927246,
        5.46936559677124,
        2.0500001907348633
      ],
      "min": [
        -11.458144187927246,
        -9.849588394165039,
        -2.049999952316284
      ],
      "type": "VEC3"
    },
    {
      "bufferView": 2,
      "byteOffset": 21444,
      "componentType": 5126,
      "count": 637,
      "max": [
        1.0,
        1.0,
        0.9999959468841553
      ],
      "min": [
        -1.0,
        -1.0,
        -0.9999959468841553
      ],
      "type": "VEC3"
    },
    {
      "bufferView": 1,
      "byteOffset": 4600,
      "componentType": 5126,
      "count": 637,
      "max": [
        0.09775660932064056,
        0.6142085194587708
      ],
      "min": [
        0.06611673533916473,
        0.5825686454772949
      ],
      "type": "VEC2"
    },
    {
      "bufferView": 0,
      "byteOffset": 11520,
      "componentType": 5125,
      "count": 3456,
      "type": "SCALAR"
    },
    {
      "bufferView": 2,
      "byteOffset": 29088,
      "componentType": 5126,
      "count": 434,
      "max": [
        1.72262704372406,
        1.1126716136932373,
        0.9991718530654907
      ],
      "min": [
        -1.72262704372406,
        -1.1126726865768433,
        -0.9991718530654907
      ],
      "type": "VEC3"
    },
    {
      "bufferView": 2,
      "byteOffset": 34296,
      "componentType": 5126,
      "count": 434,
      "max": [
        0.9902153611183167,
        0.9979576468467712,
        0.9995604753494263
      ],
      "min": [
        -0.9902153611183167,
        -0.9979576468467712,
        -0.9995604753494263
      ],
      "type": "VEC3"
    },
    {
      "bufferView": 1,
      "byteOffset": 9696,
      "componentType": 5126,
      "count": 434,
      "max": [
        0.9397605061531067,
        0.7781810760498047
      ],
      "min": [
        0.9052913784980774,
        0.7437118291854858
      ],
      "type": "VEC2"
    },
    {
      "bufferView": 0,
      "byteOffset": 25344,
      "componentType": 5125,
      "count": 2304,
      "type": "SCALAR"
    },
    {
      "bufferView": 2,
      "byteOffset": 39504,
      "componentType": 5126,
      "count": 224,
      "max": [
        2.2081453800201416,
        1.0005184412002563,
        0.9997069835662842
      ],
      "min": [
        -2.2081453800201416,
        -0.9927296042442322,
        -0.9997206926345825
      ],
      "type": "VEC3"
    },
    {
      "bufferView": 2,
      "byteOffset": 42192,
      "componentType": 5126,
      "count": 224,
      "max": [
        0.9926691651344299,
        0.9922104477882385,
        0.9908829927444458
      ],
      "min": [
        -0.9926691651344299,
        -0.9847671389579773,
        -0.9927356243133545
      ],
      "type": "VEC3"
    },
    {
      "bufferView": 1,
      "byteOffset": 13168,
      "componentType": 5126,
      "count": 224,
      "max": [
        0.9366897940635681,
        0.07555180788040161
      ],
      "min": [
        0.9083620309829712,
        0.0472240149974823
      ],
      "type": "VEC2"
    },
    {
      "bufferView": 0,
      "byteOffset": 34560,
      "componentType": 5125,
      "count": 1152,
      "type": "SCALAR"
    },
    {
      "bufferView": 2,
      "byteOffset": 44880,
      "componentType": 5126,
      "count": 68,
      "max": [
        1.6778123378753662,
        -1.3413599729537964,
        0.31538206338882446
      ],
      "min": [
        0.15549860894680023,
        -2.3152098655700684,
        -0.25892895460128784
      ],
      "type": "VEC3"
    },
    {
      "bufferView": 2,
      "byteOffset": 45696,
      "componentType": 5126,
      "count": 68,
      "max": [
        0.7496095895767212,
        0.9494673609733582,
        0.9563696384429932
      ],
      "min": [
        -0.7502447366714478,
        -0.9986607432365417,
        -0.9870408177375793
      ],
      "type": "VEC3"
    },
    {
      "bufferView": 1,
      "byteOffset": 14960,
      "componentType": 5126,
      "count": 68,
      "max": [
        0.2511245906352997,
        0.4326527416706085
      ],
      "min": [
        0.219257652759552,
        0.4007857143878937
      ],
      "type": "VEC2"
    },
    {
      "bufferView": 0,
      "byteOffset": 39168,
      "componentType": 5125,
      "count": 294,
      "type": "SCALAR"
    },
    {
      "bufferView": 2,
      "byteOffset": 46512,
      "componentType": 5126,
      "count": 68,
      "max": [
        1.6778123378753662,
        -1.3413599729537964,
        0.31538206338882446
      ],
      "min": [
        0.15549860894680023,
        -2.3152098655700684,
        -0.25892895460128784
      ],
      "type": "VEC3"
    },
    {
      "bufferView": 2,
      "byteOffset": 47328,
      "componentType": 5126,
      "count": 68,
      "max": [
        0.7496095895767212,
        0.9494673609733582,
        0.9563696384429932
      ],
      "min": [
        -0.7502447366714478,
        -0.9986607432365417,
        -0.9870408177375793
      ],
      "type": "VEC3"
    },
    {
      "bufferView": 1,
      "byteOffset": 15504,
      "componentType": 5126,
      "count": 68,
      "max": [
        0.2511245906352997,
        0.4326527416706085
      ],
      "min": [
        0.219257652759552,
        0.4007857143878937
      ],
      "type": "VEC2"
    },
    {
      "bufferView": 0,
      "byteOffset": 40344,
      "componentType": 5125,
      "count": 294,
      "type": "SCALAR"
    },
    {
      "bufferView": 2,
      "byteOffset": 48144,
      "componentType": 5126,
      "count": 68,
      "max": [
        1.6778123378753662,
        -1.3413599729537964,
        0.31538206338882446
      ],
      "min": [
        0.15549860894680023,
        -2.3152098655700684,
        -0.25892895460128784
      ],
      "type": "VEC3"
    },
    {
      "bufferView": 2,
      "byteOffset": 48960,
      "componentType": 5126,
      "count": 68,
      "max": [
        0.7496095895767212,
        0.9494673609733582,
        0.9563696384429932
      ],
      "min": [
        -0.7502447366714478,
        -0.9986607432365417,
        -0.9870408177375793
      ],
      "type": "VEC3"
    },
    {
      "bufferView": 1,
      "byteOffset": 16048,
      "componentType": 5126,
      "count": 68,
      "max": [
        0.2511245906352997,
        0.4326527416706085
      ],
      "min": [
        0.219257652759552,
        0.4007857143878937
      ],
      "type": "VEC2"
    },
    {
      "bufferView": 0,
      "byteOffset": 41520,
      "componentType": 5125,
      "count": 294,
      "type": "SCALAR"
    },
    {
      "bufferView": 2,
      "byteOffset": 49776,
      "componentType": 5126,
      "count": 68,
      "max": [
        1.6778123378753662,
        -1.3413599729537964,
        0.31538206338882446
      ],
      "min": [
        0.15549860894680023,
        -2.3152098655700684,
        -0.25892895460128784
      ],
      "type": "VEC3"
    },
    {
      "bufferView": 2,
      "byteOffset": 50592,
      "componentType": 5126,
      "count": 68,
      "max": [
        0.7496095895767212,
        0.9494673609733582,
        0.9563696384429932
      ],
      "min": [
        -0.7502447366714478,
        -0.9986607432365417,
        -0.9870408177375793
      ],
      "type": "VEC3"
    },
    {
      "bufferView": 1,
      "byteOffset": 16592,
      "componentType": 5126,
      "count": 68,
      "max": [
        0.2511245906352997,
        0.4326527416706085
      ],
      "min": [
        0.219257652759552,
        0.4007857143878937
      ],
      "type": "VEC2"
    },
    {
      "bufferView": 0,
      "byteOffset": 42696,
      "componentType": 5125,
      "count": 294,
      "type": "SCALAR"
    },
    {
      "bufferView": 2,
      "byteOffset": 51408,
      "componentType": 5126,
      "count": 68,
      "max": [
        1.6778123378753662,
        -1.3413599729537964,
        0.31538206338882446
      ],
      "min": [
        0.15549860894680023,
        -2.3152098655700684,
        -0.25892895460128784
      ],
      "type": "VEC3"
    },
    {
      "bufferView": 2,
      "byteOffset": 52224,
      "componentType": 5126,
      "count": 68,
      "max": [
        0.7496095895767212,
        0.9494673609733582,
        0.9563696384429932
      ],
      "min": [
        -0.7502447366714478,
        -0.9986607432365417,
        -0.9870408177375793
      ],
      "type": "VEC3"
    },
    {
      "bufferView": 1,
      "byteOffset": 17136,
      "componentType": 5126,
      "count": 68,
      "max": [
        0.2511245906352997,
        0.4326527416706085
      ],
      "min": [
        0.219257652759552,
        0.4007857143878937
      ],
      "type": "VEC2"
    },
    {
      "bufferView": 0,
      "byteOffset": 43872,
      "componentType": 5125,
      "count": 294,
      "type": "SCALAR"
    },
    {
      "bufferView": 2,
      "byteOffset": 53040,
      "componentType": 5126,
      "count": 68,
      "max": [
        1.6778123378753662,
        -1.3413599729537964,
        0.31538206338882446
      ],
      "min": [
        0.15549860894680023,
        -2.3152098655700684,
        -0.25892895460128784
      ],
      "type": "VEC3"
    },
    {
      "bufferView": 2,
      "byteOffset": 53856,
      "componentType": 5126,
      "count": 68,
      "max": [
        0.7496095895767212,
        0.9494673609733582,
        0.9563696384429932
      ],
      "min": [
        -0.7502447366714478,
        -0.9986607432365417,
        -0.9870408177375793
      ],
      "type": "VEC3"
    },
    {
      "bufferView": 1,
      "byteOffset": 17680,
      "componentType": 5126,
      "count": 68,
      "max": [
        0.2511245906352997,
        0.4326527416706085
      ],
      "min": [
        0.219257652759552,
        0.4007857143878937
      ],
      "type": "VEC2"
    },
    {
      "bufferView": 0,
      "byteOffset": 45048,
      "componentType": 5125,
      "count": 294,
      "type": "SCALAR"
    }
  ],
  "asset": {
    "extras": {
      "author": "Zainal Abd. Kahar (https://sketchfab.com/zsuperxtreme)",
      "license": "CC-BY-4.0 (http://creativecommons.org/licenses/by/4.0/)",
      "source": "https://sketchfab.com/3d-models/octopus-fa048c4ac32a4d4988214a5e3fe70a86",
      "title": "Octopus"
    },
    "generator": "Sketchfab-12.68.0",
    "version": "2.0"
  },
  "bufferViews": [
    {
      "buffer": 0,
      "byteLength": 46224,
      "name": "floatBufferViews",
      "target": 34963
    },
    {
      "buffer": 0,
      "byteLength": 18224,
      "byteOffset": 46224,
      "byteStride": 8,
      "name": "floatBufferViews",
      "target": 34962
    },
    {
      "buffer": 0,
      "byteLength": 54672,
      "byteOffset": 64448,
      "byteStride": 12,
      "name": "floatBufferViews",
      "target": 34962
    }
  ],
  "buffers": [
    {
      "byteLength": 119120,
      "uri": "scene.bin"
    }
  ],
  "images": [
    {
      "uri": "textures/Color_baseColor.png"
    }
  ],
  "materials": [
    {
      "doubleSided": true,
      "name": "Color",
      "pbrMetallicRoughness": {
        "baseColorTexture": {
          "index": 0
        },
        "metallicFactor": 0.634048057688683,
        "roughnessFactor": 0.3294709033313269
      }
    }
  ],
  "meshes": [
    {
      "name": "Sphere_Color_0",
      "primitives": [
        {
          "attributes": {
            "NORMAL": 1,
            "POSITION": 0,
            "TEXCOORD_0": 2
          },
          "indices": 3,
          "material": 0,
          "mode": 4
        }
      ]
    },
    {
      "name": "Mouth_Color_0",
      "primitives": [
        {
          "attributes": {
            "NORMAL": 5,
            "POSITION": 4,
            "TEXCOORD_0": 6
          },
          "indices": 7,
          "material": 0,
          "mode": 4
        }
      ]
    },
    {
      "name": "Eyes_Color_0",
      "primitives": [
        {
          "attributes": {
            "NORMAL": 9,
            "POSITION": 8,
            "TEXCOORD_0": 10
          },
          "indices": 11,
          "material": 0,
          "mode": 4
        }
      ]
    },
    {
      "name": "Iris_Color_0",
      "primitives": [
        {
          "attributes": {
            "NORMAL": 13,
            "POSITION": 12,
            "TEXCOORD_0": 14
          },
          "indices": 15,
          "material": 0,
          "mode": 4
        }
      ]
    },
    {
      "name": "Plane_Color_0",
      "primitives": [
        {
          "attributes": {
            "NORMAL": 17,
            "POSITION": 16,
            "TEXCOORD_0": 18
          },
          "indices": 19,
          "material": 0,
          "mode": 4
        }
      ]
    },
    {
      "name": "Plane.001_Color_0",
      "primitives": [
        {
          "attributes": {
            "NORMAL": 21,
            "POSITION": 20,
            "TEXCOORD_0": 22
          },
          "indices": 23,
          "material": 0,
          "mode": 4
        }
      ]
    },
    {
      "name": "Plane.002_Color_0",
      "primitives": [
        {
          "attributes": {
            "NORMAL": 25,
            "POSITION": 24,
            "TEXCOORD_0": 26
          },
          "indices": 27,
          "material": 0,
          "mode": 4
        }
      ]
    },
    {
      "name": "Plane.003_Color_0",
      "primitives": [
        {
          "attributes": {
            "NORMAL": 29,
            "POSITION": 28,
            "TEXCOORD_0": 30
          },
          "indices": 31,
          "material": 0,
          "mode": 4
        }
      ]
    },
    {
      "name": "Plane.004_Color_0",
      "primitives": [
        {
          "attributes": {
            "NORMAL": 33,
            "POSITION": 32,
            "TEXCOORD_0": 34
          },
          "indices": 35,
          "material": 0,
          "mode": 4
        }
      ]
    },
    {
      "name": "Plane.005_Color_0",
      "primitives": [
        {
          "attributes": {
            "NORMAL": 37,
            "POSITION": 36,
            "TEXCOORD_0": 38
          },
          "indices": 39,
          "material": 0,
          "mode": 4
        }
      ]
    }
  ],
  "nodes": [
    {
      "children": [
        1
      ],
      "matrix": [
        1.0,
        0.0,
        0.0,
        0.0,
        0.0,
        2.220446049250313e-16,
        -1.0,
        0.0,
        0.0,
        1.0,
        2.220446049250313e-16,
        0.0,
        0.0,
        0.0,
        0.0,
        1.0
      ],
      "name": "Sketchfab_model"
    },
    {
      "children": [
        2
      ],
      "matrix": [
        1.0,
        0.0,
        0.0,
        0.0,
        0.0,
        0.0,
        1.0,
        0.0,
        0.0,
        -1.0,
        0.0,
        0.0,
        0.0,
        0.0,
        0.0,
        1.0
      ],
      "name": "87b424b65cfe49ef90edeeef2fe1b53b.fbx"
    },
    {
      "children": [
        3,
        6,
        8,
        10,
        12,
        14,
        17,
        19,
        21,
        23,
        25,
        27,
        29
      ],
      "name": "RootNode"
    },
    {
      "children": [
        4
      ],
      "matrix": [
        -29.08647719990347,
        -5.518906457566863,
        -95.51711910171437,
        0.0,
        56.63930913109449,
        79.46723428563203,
        -21.83912397841966,
        0.0,
        77.11008775993375,
        -60.45246356562044,
        -19.98834696773717,
        0.0,
        346.576416015625,
        590.38623046875,
        423.182861328125,
        1.0
      ],
      "name": "Light"
    },
    {
      "children": [
        5
      ],
      "matrix": [
        1.0,
        0.0,
        0.0,
        0.0,
        0.0,
        2.220446049250313e-16,
        1.0,
        0.0,
        0.0,
        -1.0,
        2.220446049250313e-16,
        0.0,
        0.0,
        0.0,
        0.0,
        1.0
      ],
      "name": "Object_4"
    },
    {
      "name": "Object_5"
    },
    {
      "children": [
        7
      ],
      "matrix": [
        -65.15583280329096,
        -44.52713576570858,
        -61.41703047373549,
        0.0,
        -32.40134137821245,
        89.53957451233616,
        -30.542088974418615,
        0.0,
        68.59205472129975,
        -1.0718647115348782e-05,
        -72.7676336239627,
        0.0,
        735.88916015625,
        495.8309326171875,
        692.5791015625,
        1.0
      ],
      "name": "Camera"
    },
    {
      "name": "Object_7"
    },
    {
      "children": [
        9
      ],
      "matrix": [
        140.75424194335938,
        0.0,
        0.0,
        0.0,
        0.0,
        -2.2931776724694322e-05,
        -140.75424194335753,
        0.0,
        0.0,
        140.75424194335753,
        -2.2931776724694322e-05,
        0.0,
        0.0,
        231.4739990234375,
        6.240176200866699,
        1.0
      ],
      "name": "Sphere"
    },
    {
      "mesh": 0,
      "name": "Sphere_Color_0"
    },
    {
      "children": [
        11
      ],
      "matrix": [
        4.959710597991888,
        -7.488954650378051e-07,
        -1.4107744779555926e-15,
        -0.0,
        7.18718684290085e-07,
        4.759858805263224,
        1.393863873238991,
        -0.0,
        2.819283020330543e-07,
        1.8671268043954472,
        -6.375988452726797,
        -0.0,
        0.0,
        193.08636474609375,
        156.36956787109375,
        1.0
      ],
      "name": "Mouth"
    },
    {
      "mesh": 1,
      "name": "Mouth_Color_0"
    },
    {
      "children": [
        13
      ],
      "matrix": [
        40.67655944824219,
        9.761106564623963e-16,
        -5.2899944517867016e-17,
        0.0,
        3.206908967936896e-17,
        -2.6649319511857255,
        -24.51435923657078,
        0.0,
        -1.1904366713121637e-15,
        49.31741906082145,
        -5.361248260127231,
        0.0,
        0.0,
        240.885498046875,
        135.69097900390625,
        1.0
      ],
      "name": "Eyes"
    },
    {
      "mesh": 2,
      "name": "Eyes_Color_0"
    },
    {
      "children": [
        15
      ],
      "matrix": [
        -29.08647719990347,
        -5.518906457566863,
        -95.51711910171437,
        0.0,
        56.63930913109449,
        79.46723428563203,
        -21.83912397841966,
        0.0,
        77.11008775993375,
        -60.45246356562044,
        -19.98834696773717,
        0.0,
        -252.2225799560547,
        459.3674621582031,
        444.079833984375,
        1.0
      ],
      "name": "Light.001"
    },
    {
      "children": [
        16
      ],
      "matrix": [
        1.0,
        0.0,
        0.0,
        0.0,
        0.0,
        2.220446049250313e-16,
        1.0,
        0.0,
        0.0,
        -1.0,
        2.220446049250313e-16,
        0.0,
        0.0,
        0.0,
        0.0,
        1.0
      ],
      "name": "Object_15"
    },
    {
      "name": "Object_16"
    },
    {
      "children": [
        18
      ],
      "matrix": [
        12.905289649963379,
        3.0968673169351585e-16,
        -1.678338493029139e-17,
        0.0,
        1.017441116652555e-17,
        -0.8454921223004073,
        -7.7775710590061236,
        0.0,
        -3.776850966393527e-16,
        15.646740757713355,
        -1.7009418428912266,
        0.0,
        0.0,
        240.885498046875,
        158.5062713623047,
        1.0
      ],
      "name": "Iris"
    },
    {
      "mesh": 3,
      "name": "Iris_Color_0"
    },
    {
      "children": [
        20
      ],
      "matrix": [
        100.0,
        0.0,
        0.0,
        0.0,
        0.0,
        99.9999999999999,
        4.371138828673792e-06,
        0.0,
        0.0,
        -4.371138828673792e-06,
        99.9999999999999,
        0.0,
        5.293436527252197,
        248.41299438476563,
        2.2759036255592946e-06,
        1.0
      ],
      "name": "Plane"
    },
    {
      "mesh": 4,
      "name": "Plane_Color_0"
    },
    {
      "children": [
        22
      ],
      "matrix": [
        60.641596739880875,
        1.1755401141593773e-13,
        79.51475803168661,
        0.0,
        -3.475700656699522e-06,
        99.9999999999999,
        2.650728381424715e-06,
        0.0,
        -79.51475803168655,
        -4.371138982813514e-06,
        60.64159673988081,
        0.0,
        5.293436527252197,
        248.41299438476563,
        2.2759036255592946e-06,
        1.0
      ],
      "name": "Plane.001"
    },
    {
      "mesh": 5,
      "name": "Plane.001_Color_0"
    },
    {
      "children": [
        24
      ],
      "matrix": [
        -74.01379513848025,
        -1.734077151787744e-13,
        67.24550638666551,
        0.0,
        -2.939394204924062e-06,
        99.9999999999999,
        -3.235245221037616e-06,
        0.0,
        -67.24550638666544,
        -4.37113828792774e-06,
        -74.01379513848019,
        0.0,
        5.293436527252197,
        248.41299438476563,
        2.2759036255592946e-06,
        1.0
      ],
      "name": "Plane.002"
    },
    {
      "mesh": 6,
      "name": "Plane.002_Color_0"
    },
    {
      "children": [
        26
      ],
      "matrix": [
        -99.98052061081223,
        1.2244082449397683e-14,
        1.9740882122946288,
        0.0,
        -8.629011075838681e-08,
        99.9999999999999,
        -4.370286681144923e-06,
        0.0,
        -1.9740882122946268,
        -4.371138818898537e-06,
        -99.98052061081215,
        0.0,
        5.293436527252197,
        248.41299438476563,
        2.2759036255592946e-06,
        1.0
      ],
      "name": "Plane.003"
    },
    {
      "mesh": 7,
      "name": "Plane.003_Color_0"
    },
    {
      "children": [
        28
      ],
      "matrix": [
        -71.59935493481353,
        7.082914131761656e-13,
        -69.81068953189472,
        0.0,
        3.051521883396502e-06,
        99.9999999999999,
        -3.129705909747452e-06,
        0.0,
        69.81068953189465,
        -4.37113771075167e-06,
        -71.59935493481346,
        0.0,
        5.293436527252197,
        248.41299438476563,
        2.2759036255592946e-06,
        1.0
      ],
      "name": "Plane.004"
    },
    {
      "mesh": 8,
      "name": "Plane.004_Color_0"
    },
    {
      "children": [
        30
      ],
      "matrix": [
        55.24466760129285,
        8.134279970242272e-14,
        -83.35482410528299,
        0.0,
        3.6435552309335944e-06,
        99.9999999999999,
        2.41482131256037e-06,
        0.0,
        83.3548241052829,
        -4.371139061212687e-06,
        55.2446676012928,
        0.0,
        5.293436527252197,
        248.41299438476563,
        2.2759036255592946e-06,
        1.0
      ],
      "name": "Plane.005"
    },
    {
      "mesh": 9,
      "name": "Plane.005_Color_0"
    }
  ],
  "samplers": [
    {
      "magFilter": 9729,
      "minFilter": 9987,
      "wrapS": 10497,
      "wrapT": 10497
    }
  ],
  "scene": 0,
  "scenes": [
    {
      "name": "Sketchfab_Scene",
      "nodes": [
        0
      ]
    }
  ],
  "textures": [
    {
      "sampler": 0,
      "source": 0
    }
  ]
}
