{
  "accessors": [
    {
      "bufferView": 1,
      "componentType": 5126,
      "count": 65532,
      "max": [
        0.27897006273269653,
        0.26606622338294983,
        0.36854666471481323
      ],
      "min": [
        -0.2808193564414978,
        -0.541845977306366,
        -0.23525281250476837
      ],
      "type": "VEC3"
    },
    {
      "bufferView": 1,
      "byteOffset": 786384,
      "componentType": 5126,
      "count": 65532,
      "max": [
        0.9999977350234985,
        0.9999861717224121,
        0.9999869465827942
      ],
      "min": [
        -0.9999968409538269,
        -0.9999964237213135,
        -0.9682377576828003
      ],
      "type": "VEC3"
    },
    {
      "bufferView": 2,
      "componentType": 5126,
      "count": 65532,
      "max": [
        0.9254902005195618,
        0.9686274528503418,
        0.9254902005195618,
        0.0
      ],
      "min": [
        0.003921568859368563,
        0.003921568859368563,
        0.003921568859368563,
        0.0
      ],
      "type": "VEC4"
    },
    {
      "bufferView": 0,
      "componentType": 5125,
      "count": 369798,
      "type": "SCALAR"
    },
    {
      "bufferView": 1,
      "byteOffset": 1572768,
      "componentType": 5126,
      "count": 65532,
      "max": [
        0.2806934714317322,
        0.2641560137271881,
        0.22464050352573395
      ],
      "min": [
        -0.27607959508895874,
        -0.5405183434486389,
        -0.2562791407108307
      ],
      "type": "VEC3"
    },
    {
      "bufferView": 1,
      "byteOffset": 2359152,
      "componentType": 5126,
      "count": 65532,
      "max": [
        0.9999784827232361,
        0.9943932294845581,
        0.9999985694885254
      ],
      "min": [
        -0.9999350309371948,
        -0.9999863505363464,
        -0.9999725222587585
      ],
      "type": "VEC3"
    },
    {
      "bufferView": 2,
      "byteOffset": 1048512,
      "componentType": 5126,
      "count": 65532,
      "max": [
        0.9254902005195618,
        0.9686274528503418,
        0.9254902005195618,
        0.0
      ],
      "min": [
        0.003921568859368563,
        0.003921568859368563,
        0.003921568859368563,
        0.0
      ],
      "type": "VEC4"
    },
    {
      "bufferView": 0,
      "byteOffset": 1479192,
      "componentType": 5125,
      "count": 356193,
      "type": "SCALAR"
    },
    {
      "bufferView": 1,
      "byteOffset": 3145536,
      "componentType": 5126,
      "count": 42588,
      "max": [
        0.2899301052093506,
        0.26444265246391296,
        0.18942806124687195
      ],
      "min": [
        -0.28353679180145264,
        -0.5385803580284119,
        -0.42771583795547485
      ],
      "type": "VEC3"
    },
    {
      "bufferView": 1,
      "byteOffset": 3656592,
      "componentType": 5126,
      "count": 42588,
      "max": [
        0.999973714351654,
        0.994952917098999,
        0.9999509453773499
      ],
      "min": [
        -0.9999913573265076,
        -0.9999675154685974,
        -0.9999739527702332
      ],
      "type": "VEC3"
    },
    {
      "bufferView": 2,
      "byteOffset": 2097024,
      "componentType": 5126,
      "count": 42588,
      "max": [
        0.9254902005195618,
        0.9686274528503418,
        0.9254902005195618,
        0.0
      ],
      "min": [
        0.003921568859368563,
        0.0313725508749485,
        0.003921568859368563,
        0.0
      ],
      "type": "VEC4"
    },
    {
      "bufferView": 0,
      "byteOffset": 2903964,
      "componentType": 5125,
      "count": 208929,
      "type": "SCALAR"
    }
  ],
  "asset": {
    "extras": {
      "author": "guihim (https://sketchfab.com/guihim)",
      "license": "CC-BY-4.0 (http://creativecommons.org/licenses/by/4.0/)",
      "source": "https://sketchfab.com/3d-models/angry-octopus-82696447156d4e068edd5c9a2bb6d49a",
      "title": "Angry Octopus"
    },
    "generator": "Sketchfab-12.59.0",
    "version": "2.0"
  },
  "bufferViews": [
    {
      "buffer": 0,
      "byteLength": 3739680,
      "name": "floatBufferViews",
      "target": 34963
    },
    {
      "buffer": 0,
      "byteLength": 4167648,
      "byteOffset": 3739680,
      "byteStride": 12,
      "name": "floatBufferViews",
      "target": 34962
    },
    {
      "buffer": 0,
      "byteLength": 2778432,
      "byteOffset": 7907328,
      "byteStride": 16,
      "name": "floatBufferViews",
      "target": 34962
    }
  ],
  "buffers": [
    {
      "byteLength": 10685760,
      "uri": "scene.bin"
    }
  ],
  "materials": [
    {
      "doubleSided": true,
      "name": "Scene_-_Root",
      "pbrMetallicRoughness": {
        "metallicFactor": 0.0,
        "roughnessFactor": 0.0
      }
    }
  ],
  "meshes": [
    {
      "name": "Object_0",
      "primitives": [
        {
          "attributes": {
            "COLOR_0": 2,
            "NORMAL": 1,
            "POSITION": 0
          },
          "indices": 3,
          "material": 0,
          "mode": 4
        }
      ]
    },
    {
      "name": "Object_1",
      "primitives": [
        {
          "attributes": {
            "COLOR_0": 6,
            "NORMAL": 5,
            "POSITION": 4
          },
          "indices": 7,
          "material": 0,
          "mode": 4
        }
      ]
    },
    {
      "name": "Object_2",
      "primitives": [
        {
          "attributes": {
            "COLOR_0": 10,
            "NORMAL": 9,
            "POSITION": 8
          },
          "indices": 11,
          "material": 0,
          "mode": 4
        }
      ]
    }
  ],
  "nodes": [
    {
      "children": [
        1
      ],
      "matrix": [
        2.166348663611913,
        -2.1566812573241096e-16,
        0.9712828906841793,
        0.0,
        0.9712828906841793,
        4.810260331415768e-16,
        -2.166348663611913,
        0.0,
        0.0,
        2.374122381210327,
        5.271610661795217e-16,
        0.0,
        -0.011823981069028378,
        -2.6890220255915046e-17,
        -0.003897214075550437,
        1.0
      ],
      "name": "Sketchfab_model"
    },
    {
      "children": [
        2
      ],
      "name": "root"
    },
    {
      "children": [
        3
      ],
      "matrix": [
        1.0,
        0.0,
        0.0,
        0.0,
        0.0,
        2.220446049250313e-16,
        1.0,
        0.0,
        0.0,
        -1.0,
        2.220446049250313e-16,
        0.0,
        0.0,
        0.0,
        0.0,
        1.0
      ],
      "name": "GLTF_SceneRootNode"
    },
    {
      "children": [
        4,
        5,
        6
      ],
      "name": "_0"
    },
    {
      "mesh": 0,
      "name": "Object_4"
    },
    {
      "mesh": 1,
      "name": "Object_5"
    },
    {
      "mesh": 2,
      "name": "Object_6"
    }
  ],
  "scene": 0,
  "scenes": [
    {
      "name": "Sketchfab_Scene",
      "nodes": [
        0
      ]
    }
  ]
}
